PathFileType	4	(X/Y/Z)	Star.trc	
DataRate	CameraRate	NumFrames	NumMarkers	Units	OrigDataRate	OrigDataStartFrame	OrigNumFrames	
100.00	100.00	37	6	mm	100.00	867	1362	
Frame#	Time	LThighSuperior			LThighInferior			LThighLateral			LAsis			RAsis			SACR			
		X1	Y1	Z1	X2	Y2	Z2	X3	Y3	Z3	X4	Y4	Z4	X5	Y5	Z5	X6	Y6	Z6	

682	6.810	-37.68613	146.07323	733.61340	-12.29796	134.56146	588.03235	37.89811	212.96364	671.46497	53.80584	191.11926	934.78882	263.85593	57.78394	970.61041	73.18800	-30.84076	974.13947 
683	6.820	-38.24747	146.87518	733.43597	-12.93731	135.22502	587.96735	37.56148	213.24751	671.18451	53.48958	191.27887	934.74188	262.35986	56.88966	971.00073	71.78086	-30.69866	974.02686 
684	6.830	-38.88498	147.67703	733.25848	-13.65005	135.71307	587.81451	37.38135	213.30655	671.00983	52.55411	192.67575	934.89691	260.87756	56.16517	971.36188	69.59719	-30.43536	973.51746 
685	6.840	-39.66591	148.43019	733.08057	-14.44523	135.93370	587.56091	37.08980	213.32245	670.85474	51.74306	193.26915	934.79425	259.34378	55.49884	971.68567	67.63290	-29.93897	973.09491 
686	6.850	-40.57752	149.01427	732.85736	-15.30762	136.11656	587.37958	36.30029	213.68745	670.62408	50.90420	193.57030	934.63910	257.83578	54.77778	972.10889	65.68291	-29.53651	972.73590 
687	6.860	-41.57999	149.46603	732.65887	-16.25708	136.40799	587.34760	35.40719	213.95917	670.40747	49.97216	194.04091	934.64679	256.43045	54.16114	972.63892	63.74965	-29.31205	972.33228 
688	6.870	-42.66811	149.71902	732.49957	-17.23593	136.58742	587.29761	34.62581	214.02208	670.18176	49.03677	194.52141	934.72253	255.07158	53.78840	973.17981	61.91410	-29.00198	971.83197 
689	6.880	-43.77217	149.89183	732.30707	-18.22485	136.56938	587.11511	34.04068	213.83202	669.94318	48.08606	194.92520	934.72253	253.71573	53.53720	973.72998	60.15779	-28.81157	971.49561 
690	6.890	-44.78529	150.12756	732.11292	-19.24584	136.47986	586.90094	33.64666	213.34633	669.73743	47.07080	195.26639	934.59674	252.51013	53.38605	974.42816	58.60383	-29.04327	971.44159 
691	6.900	-45.74000	150.33582	731.96777	-20.17982	136.33922	586.77362	32.79028	213.34773	669.51062	46.04808	195.75436	934.62445	251.46277	53.34085	975.21967	57.08901	-28.43466	971.16669 
692	6.910	-46.67374	150.49373	731.86981	-21.05159	136.18108	586.69495	31.47416	213.78770	669.27521	45.09121	196.23068	934.82318	250.23061	53.23883	975.86047	55.51738	-28.18955	971.13147 
693	6.920	-47.60982	150.55280	731.72498	-21.96872	135.93985	586.52637	30.16917	213.92810	668.92999	44.26621	196.20412	934.78986	248.75775	53.00940	976.45776	54.00828	-28.12497	971.29523 
694	6.930	-48.60626	150.31709	731.50336	-22.88770	135.64354	586.28949	28.98424	213.85204	668.51239	43.51577	195.95865	934.51599	247.26167	52.73400	977.05963	52.51571	-27.88574	971.44141 
695	6.940	-49.65102	149.95184	731.26508	-23.71030	135.36322	586.10168	28.02090	213.74797	668.26624	42.42401	196.35770	934.26001	246.01105	52.45312	977.52167	50.92204	-27.70718	971.70996 
696	6.950	-50.55907	149.86388	731.02820	-24.46744	135.00076	585.97345	27.14130	213.58952	668.09473	41.17794	196.92145	934.04297	244.32022	52.25270	978.15259	49.33788	-27.62566	972.07782 
697	6.960	-51.33146	149.90736	730.84186	-25.24794	134.58821	585.80536	26.23266	213.48462	667.84595	40.43116	196.50024	933.75049	241.08775	52.37185	979.20056	47.84957	-27.40273	972.35010 
698	6.970	-52.14733	149.75548	730.69110	-25.99899	134.26282	585.58630	25.68730	213.13860	667.65149	39.59943	196.78992	933.65399	240.48529	52.07040	979.58099	46.34007	-27.21966	972.59656 
699	6.980	-49.91933	152.29234	729.98639	-26.61712	134.04829	585.46124	25.57866	212.51186	667.59418	38.93037	196.90533	933.51782	238.43797	51.84845	980.47198	44.78441	-27.22301	972.87146 
700	6.990	-50.31742	152.57126	729.86041	-27.08599	133.99889	585.38788	25.44201	212.04608	667.47943	38.36936	196.96059	933.41016	236.46207	51.30704	981.48175	43.25383	-27.12735	973.05811 
701	7.000	-51.89326	151.69618	729.95483	-27.41229	134.09601	585.31030	25.26669	211.70177	667.22150	37.81963	197.00815	933.35229	235.06621	50.46122	982.43414	41.71677	-26.92229	973.17242 
702	7.010	-53.02044	151.06976	730.00677	-27.57936	134.20442	585.24438	25.28967	211.46164	667.06732	37.27020	196.92390	933.35333	235.58806	49.36411	983.21997	40.25029	-26.93261	973.32690 
703	7.020	-53.72210	150.86279	729.96942	-27.56767	134.35791	585.13953	25.51354	211.38759	667.08630	36.77489	196.74635	933.48224	232.82181	48.96957	984.65936	38.92740	-27.11870	973.42584 
704	7.030	-54.11911	150.92709	729.82538	-27.39104	134.60448	585.02087	25.90019	211.30157	667.16119	36.38121	196.57431	933.76208	231.58723	48.36038	985.63446	37.60403	-27.17284	973.31757 
705	7.040	-54.18215	151.06870	729.66498	-27.04302	134.90042	584.92346	26.46583	211.10400	667.25024	36.00195	196.33968	934.06201	230.56804	47.56841	986.73407	36.12575	-27.87792	973.27686 
706	7.050	-53.96615	151.26591	729.51477	-26.52346	135.20612	584.84003	27.21320	210.84404	667.37585	35.63934	196.05043	934.27405	229.58948	46.60077	987.90485	35.10219	-28.27194	973.32062 
707	7.060	-53.56714	151.50188	729.39026	-25.91077	135.47231	584.76605	28.07318	210.63135	667.60699	35.34072	195.72778	934.44281	228.52559	45.62936	989.03632	34.10134	-28.59846	973.14062 
708	7.070	-53.08109	151.67973	729.32611	-25.26077	135.71338	584.69318	29.03736	210.45955	667.92133	35.07793	195.35995	934.69427	227.53809	44.75536	990.29236	33.15374	-29.08372	972.93256 
709	7.080	-52.57407	151.78999	729.32556	-24.56441	135.99387	584.68402	30.10750	210.25304	668.23840	34.88213	194.97568	935.05072	226.79414	43.97196	991.64801	32.31694	-29.66789	972.76050 
710	7.090	-52.07914	151.79472	729.32477	-23.77357	136.29372	584.72150	31.86484	209.95078	669.37561	34.75313	194.53659	935.40491	226.21744	43.07030	992.94708	31.65355	-30.19162	972.56860 
711	7.100	-51.62474	151.61288	729.28503	-22.92768	136.53059	584.70007	32.29811	210.26262	669.73901	34.60061	193.97124	935.73004	225.66951	42.01448	994.18567	31.18659	-30.73401	972.44763 
712	7.110	-51.20613	151.22559	729.26624	-22.16936	136.65063	584.67310	33.04020	209.70235	670.01514	34.42258	193.37190	936.09875	225.12077	41.12252	995.36005	30.83976	-31.43394	972.41675 
713	7.120	-50.84373	150.63237	729.28033	-21.54527	136.64203	584.68542	33.25092	209.30772	670.02704	34.24803	192.87999	936.50159	224.55849	40.46556	996.56879	30.60214	-32.30618	972.51050 
714	7.130	-50.57118	149.95013	729.29370	-21.04085	136.56972	584.72058	32.97117	209.40871	670.03217	34.02606	192.43854	936.87885	224.05339	39.95906	997.70770	30.51895	-33.12086	972.64984 
715	7.140	-50.37833	149.26518	729.32239	-20.68371	136.42731	584.73602	32.88964	209.37393	670.32562	33.74967	191.90924	937.20355	223.67252	39.63168	998.59204	30.52910	-33.71104	972.62915 
716	7.150	-50.26372	148.41640	729.37738	-20.41761	136.11752	584.72113	32.66220	209.36836	670.64099	33.46816	191.28636	937.44104	223.29817	39.37139	999.44824	30.59594	-34.38749	972.64685 
717	7.160	-50.21186	147.41296	729.46478	-20.21891	135.71225	584.77032	34.27764	206.52965	671.22015	33.21367	190.70569	937.59967	222.89716	39.08881	1000.37823	30.74588	-35.19122	972.79755 
718	7.170	-50.01335	146.66026	729.57794	-20.12867	135.16980	584.84534	34.49935	205.16167	671.48657	33.01283	190.25826	937.72437	222.59576	38.89111	1001.10706	31.00197	-35.86228	972.91461 
